<?xml version="1.0" encoding="UTF-8" standalone="no"?>
<svg
   xmlns:dc="http://purl.org/dc/elements/1.1/"
   xmlns:cc="http://creativecommons.org/ns#"
   xmlns:rdf="http://www.w3.org/1999/02/22-rdf-syntax-ns#"
   xmlns:svg="http://www.w3.org/2000/svg"
   xmlns="http://www.w3.org/2000/svg"
   xmlns:xlink="http://www.w3.org/1999/xlink"
   xmlns:sodipodi="http://sodipodi.sourceforge.net/DTD/sodipodi-0.dtd"
   xmlns:inkscape="http://www.inkscape.org/namespaces/inkscape"
   id="svg2"
   height="109.61002"
   width="491.04434"
   viewBox="0 0 491.04434 109.61002"
   preserveAspectRatio="xMidYMid meet"
   version="1.1"
   inkscape:version="0.91 r13725"
   sodipodi:docname="logo+TM.svg">
  <sodipodi:namedview
     pagecolor="#ffffff"
     bordercolor="#666666"
     borderopacity="1"
     objecttolerance="10"
     gridtolerance="10"
     guidetolerance="10"
     inkscape:pageopacity="0"
     inkscape:pageshadow="2"
     inkscape:window-width="1927"
     inkscape:window-height="977"
     id="namedview31"
     showgrid="false"
     inkscape:zoom="0.57021327"
     inkscape:cx="245.52217"
     inkscape:cy="54.805012"
     inkscape:window-x="0"
     inkscape:window-y="0"
     inkscape:window-maximized="0"
     inkscape:current-layer="svg2" />
  <metadata
     id="metadata42">
    <rdf:RDF>
      <cc:Work
         rdf:about="">
        <dc:format>image/svg+xml</dc:format>
        <dc:type
           rdf:resource="http://purl.org/dc/dcmitype/StillImage" />
        <dc:title />
      </cc:Work>
    </rdf:RDF>
  </metadata>
  <defs
     id="defs4">
    <path
       id="bqtMGVFfC"
       d="m 76.59,208.15 490.89,0 0,109.51 -490.89,0 0,-109.51 z" />
    <clipPath
       id="clipb3270aqFxW">
      <use
         height="100%"
         width="100%"
         y="0"
         x="0"
         style="opacity:1"
         id="use8"
         xlink:href="#bqtMGVFfC" />
    </clipPath>
    <path
       id="a29qJxp4Q5"
       d="m 206.41,343.07 2.03,0.21 2.02,0.29 1.98,0.36 1.96,0.44 1.93,0.52 1.89,0.59 1.87,0.66 1.83,0.74 1.79,0.8 1.76,0.86 1.72,0.94 1.67,0.99 1.64,1.06 1.59,1.12 1.54,1.18 1.5,1.24 1.44,1.29 1.4,1.34 1.35,1.4 1.29,1.45 1.23,1.49 1.18,1.55 1.12,1.59 1.06,1.63 1,1.68 0.93,1.71 0.87,1.76 0.8,1.8 0.73,1.83 0.66,1.86 0.59,1.9 0.52,1.92 0.44,1.96 0.37,1.99 0.28,2.01 0.21,2.03 0.13,2.06 0.04,2.08 -0.04,2.08 -0.04,0.6 -51.42,0 0,-53.15 1,-0.03 2.08,0.05 2.06,0.12 z" />
    <path
       id="eKU1wMtMo"
       d="m 243.47,404.59 -0.09,1.46 -0.2,2.04 -0.29,2.01 -0.37,1.99 -0.44,1.95 -0.52,1.93 -0.59,1.9 -0.66,1.86 -0.73,1.83 -0.8,1.8 -0.87,1.75 -0.93,1.72 -1,1.68 -1.06,1.63 -1.12,1.59 -1.18,1.55 -1.23,1.49 -1.29,1.45 -1.35,1.4 -1.4,1.34 -1.44,1.29 -1.5,1.24 -1.54,1.18 -1.59,1.12 -1.64,1.05 -1.67,1 -1.72,0.93 -1.76,0.87 -1.79,0.8 -1.83,0.74 -1.87,0.66 -1.89,0.59 -1.93,0.52 -1.96,0.44 -1.98,0.36 -2.02,0.29 -2.03,0.21 -2.06,0.12 -2.08,0.04 -2.08,-0.04 -2.06,-0.12 -2.04,-0.21 -2.01,-0.29 -1.98,-0.36 -1.96,-0.44 -1.93,-0.52 -1.9,-0.59 -1.86,-0.66 -1.83,-0.74 -1.79,-0.8 -1.76,-0.87 -1.72,-0.93 -1.67,-1 -1.64,-1.05 -1.59,-1.12 -1.54,-1.18 -1.5,-1.24 -1.45,-1.29 -1.39,-1.34 -1.35,-1.4 -1.29,-1.45 -1.23,-1.49 -1.18,-1.55 -1.12,-1.59 -1.06,-1.63 -1,-1.68 -0.93,-1.72 -0.87,-1.75 -0.8,-1.8 -0.73,-1.83 -0.66,-1.86 -0.59,-1.9 -0.52,-1.93 -0.44,-1.95 -0.37,-1.99 -0.29,-2.01 -0.2,-2.04 -0.13,-2.05 -0.04,-2.09 0.04,-2.08 0.13,-2.05 0.2,-2.04 0.29,-2.01 0.37,-1.99 0.44,-1.95 0.52,-1.93 0.59,-1.9 0.66,-1.86 0.73,-1.83 0.8,-1.8 0.87,-1.75 0.93,-1.72 1,-1.68 1.06,-1.63 1.12,-1.59 1.18,-1.55 1.23,-1.49 1.29,-1.45 1.35,-1.4 1.39,-1.34 1.45,-1.29 1.5,-1.24 1.54,-1.18 1.59,-1.12 1.64,-1.05 1.67,-1 1.72,-0.93 1.76,-0.87 1.79,-0.8 1.83,-0.74 1.86,-0.66 1.9,-0.59 1.93,-0.52 1.96,-0.44 1.98,-0.36 2.01,-0.29 2.04,-0.21 2.06,-0.12 1.08,-0.02 0,53.15 51.42,0 z" />
  </defs>
  <g
     transform="translate(-76,-342.84998)"
     id="g4240">
    <g
       transform="translate(2.3998654,-4.9997568)"
       id="g4219">
      <g
         style="font-style:normal;font-weight:normal;font-size:75px;line-height:125%;font-family:sans-serif;letter-spacing:-1.85000002px;word-spacing:0px;fill:#ff9933;fill-opacity:1;stroke:none;stroke-width:1px;stroke-linecap:butt;stroke-linejoin:miter;stroke-opacity:1"
         id="text4195">
        <path
           d="m 405.94241,428.95349 0,-6.44531 q 4.90723,3.62549 10.80323,3.62549 7.91015,0 7.91015,-5.27344 0,-1.50147 -0.6958,-2.52686 -0.65918,-1.06201 -1.83105,-1.86767 -1.13526,-0.80567 -2.70996,-1.42822 -1.53809,-0.65918 -3.33252,-1.35498 -2.49024,-0.98877 -4.39453,-1.97754 -1.86768,-1.02539 -3.14942,-2.27051 -1.24512,-1.28174 -1.9043,-2.89307 -0.62255,-1.61133 -0.62255,-3.77197 0,-2.63672 1.20849,-4.65088 1.2085,-2.05078 3.22266,-3.40576 2.01416,-1.3916 4.57763,-2.0874 2.6001,-0.6958 5.34668,-0.6958 4.87061,0 8.71582,1.68457 l 0,6.0791 q -4.13818,-2.70996 -9.52148,-2.70996 -1.68457,0 -3.03955,0.40283 -1.35498,0.36621 -2.34375,1.06201 -0.95215,0.6958 -1.50147,1.68457 -0.51269,0.95215 -0.51269,2.12402 0,1.46485 0.51269,2.45362 0.54932,0.98877 1.57471,1.75781 1.02539,0.76904 2.49024,1.3916 1.46484,0.62256 3.33252,1.35498 2.49023,0.95215 4.46777,1.97754 1.97754,0.98877 3.36914,2.27051 1.3916,1.24512 2.12402,2.89306 0.76905,1.64795 0.76905,3.91846 0,2.78321 -1.24512,4.83399 -1.2085,2.05078 -3.25928,3.40576 -2.05078,1.35498 -4.72412,2.01416 -2.67334,0.65918 -5.60303,0.65918 -5.78613,0 -10.03418,-2.23389 z"
           style="font-style:normal;font-variant:normal;font-weight:normal;font-stretch:normal;font-size:75px;line-height:125%;font-family:'Segoe UI';-inkscape-font-specification:'Segoe UI, Normal';text-align:start;letter-spacing:-0.43000001px;writing-mode:lr-tb;text-anchor:start;fill:#ff9933;fill-opacity:1"
           id="path4187" />
        <path
           d="m 470.69796,430.30847 -6.00586,0 0,-21.60644 q 0,-11.71875 -8.71582,-11.71875 -4.39453,0 -7.39746,3.40576 -3.00293,3.36914 -3.00293,8.6792 l 0,21.24023 -6.00586,0 0,-55.51758 6.00586,0 0,24.24317 0.14648,0 q 4.32129,-7.10449 12.30469,-7.10449 12.6709,0 12.6709,15.27099 l 0,23.10791 z"
           style="font-style:normal;font-variant:normal;font-weight:normal;font-stretch:normal;font-size:75px;line-height:125%;font-family:'Segoe UI';-inkscape-font-specification:'Segoe UI, Normal';text-align:start;letter-spacing:-0.43000001px;writing-mode:lr-tb;text-anchor:start;fill:#ff9933;fill-opacity:1"
           id="path4189" />
        <path
           d="m 484.69667,383.28699 q -1.61133,0 -2.74658,-1.09864 -1.13526,-1.09863 -1.13526,-2.7832 0,-1.68457 1.13526,-2.7832 1.13525,-1.13526 2.74658,-1.13526 1.64795,0 2.7832,1.13526 1.17188,1.09863 1.17188,2.7832 0,1.61133 -1.17188,2.74658 -1.13525,1.13526 -2.7832,1.13526 z m 2.92969,47.02148 -6.00586,0 0,-37.5 6.00586,0 0,37.5 z"
           style="font-style:normal;font-variant:normal;font-weight:normal;font-stretch:normal;font-size:75px;line-height:125%;font-family:'Segoe UI';-inkscape-font-specification:'Segoe UI, Normal';text-align:start;letter-spacing:-0.43000001px;writing-mode:lr-tb;text-anchor:start;fill:#ff9933;fill-opacity:1"
           id="path4191" />
        <path
           d="m 505.65339,424.88855 -0.14649,0 0,22.66846 -6.00585,0 0,-54.74854 6.00585,0 0,6.5918 0.14649,0 q 4.43115,-7.4707 12.96387,-7.4707 7.25097,0 11.31591,5.05371 4.06495,5.01709 4.06495,13.47656 0,9.41162 -4.57764,15.08789 -4.57764,5.63965 -12.52442,5.63965 -7.28759,0 -11.24267,-6.29883 z m -0.14649,-15.12451 0,5.23681 q 0,4.65088 3.00293,7.91016 3.03956,3.22266 7.69043,3.22266 5.45655,0 8.53272,-4.17481 3.11279,-4.1748 3.11279,-11.60888 0,-6.26221 -2.89306,-9.81446 -2.89307,-3.55224 -7.83692,-3.55224 -5.23682,0 -8.42285,3.66211 -3.18604,3.62548 -3.18604,9.11865 z"
           style="font-style:normal;font-variant:normal;font-weight:normal;font-stretch:normal;font-size:75px;line-height:125%;font-family:'Segoe UI';-inkscape-font-specification:'Segoe UI, Normal';text-align:start;letter-spacing:-0.43000001px;writing-mode:lr-tb;text-anchor:start;fill:#ff9933;fill-opacity:1"
           id="path4193" />
      </g>
      <g
         style="font-style:normal;font-weight:normal;font-size:75px;line-height:125%;font-family:sans-serif;letter-spacing:-1.85000002px;word-spacing:0px;fill:#f7902a;fill-opacity:1;stroke:none;stroke-width:1px;stroke-linecap:butt;stroke-linejoin:miter;stroke-opacity:1"
         id="text4199">
        <path
           d="m 564.64447,386.98627 -1.97754,0 0,-8.75244 -0.0732,0 -4.01001,8.75244 -1.08032,0 -3.91846,-8.75244 -0.0732,0 0,8.75244 -1.86768,0 0,-12.12158 2.32544,0 4.11987,9.08203 0.0733,0 4.1748,-9.08203 2.30713,0 0,12.12158 z m -14.53857,-10.32715 -3.82691,0 0,10.32715 -2.03247,0 0,-10.32715 -3.77197,0 0,-1.79443 9.63135,0 0,1.79443 z"
           style="font-style:normal;font-variant:normal;font-weight:normal;font-stretch:normal;font-size:37.5px;line-height:125%;font-family:'Segoe UI';-inkscape-font-specification:'Segoe UI, Normal';text-align:start;letter-spacing:-0.43000001px;writing-mode:lr-tb;text-anchor:start;fill:#f7902a;fill-opacity:1"
           id="path4196" />
      </g>
      <g
         style="font-style:normal;font-weight:normal;font-size:75px;line-height:125%;font-family:sans-serif;letter-spacing:-1.85000002px;word-spacing:0px;fill:#0e7384;fill-opacity:1;stroke:none;stroke-width:1px;stroke-linecap:butt;stroke-linejoin:miter;stroke-opacity:1"
         id="text4203">
        <path
           d="m 288.08319,429.80811 -6.00586,0 0,-55.51758 6.00586,0 0,55.51758 z"
           style="font-style:normal;font-variant:normal;font-weight:normal;font-stretch:normal;font-size:75px;line-height:125%;font-family:'Segoe UI';-inkscape-font-specification:'Segoe UI, Normal';text-align:start;letter-spacing:-0.44999993px;writing-mode:lr-tb;text-anchor:start;fill:#0e7384;fill-opacity:1"
           id="path4199" />
        <path
           d="m 329.93055,412.55957 -26.47705,0 q 0.14649,6.26221 3.36914,9.66797 3.22266,3.40576 8.86231,3.40576 6.33545,0 11.64551,-4.1748 l 0,5.63964 q -4.94385,3.58887 -13.07373,3.58887 -7.94678,0 -12.4878,-5.09033 -4.54101,-5.12695 -4.54101,-14.39209 0,-8.75244 4.94384,-14.24561 4.98047,-5.52978 12.34131,-5.52978 7.36084,0 11.38916,4.76074 4.02832,4.76074 4.02832,13.22022 l 0,3.14941 z m -6.15234,-5.09033 q -0.0366,-5.2002 -2.52686,-8.09326 -2.45361,-2.89307 -6.84814,-2.89307 -4.24805,0 -7.21436,3.03955 -2.9663,3.03955 -3.66211,7.94678 l 20.25147,0 z"
           style="font-style:normal;font-variant:normal;font-weight:normal;font-stretch:normal;font-size:75px;line-height:125%;font-family:'Segoe UI';-inkscape-font-specification:'Segoe UI, Normal';text-align:start;letter-spacing:-0.44999993px;writing-mode:lr-tb;text-anchor:start;fill:#0e7384;fill-opacity:1"
           id="path4201" />
        <path
           d="m 369.72713,429.80811 -6.00585,0 0,-21.38672 q 0,-11.93848 -8.71582,-11.93848 -4.5044,0 -7.47071,3.40576 -2.92969,3.36914 -2.92969,8.53272 l 0,21.38672 -6.00585,0 0,-37.5 6.00585,0 0,6.22558 0.14649,0 q 4.24805,-7.10449 12.30469,-7.10449 6.15234,0 9.41162,3.9917 3.25927,3.95508 3.25927,11.4624 l 0,22.92481 z"
           style="font-style:normal;font-variant:normal;font-weight:normal;font-stretch:normal;font-size:75px;line-height:125%;font-family:'Segoe UI';-inkscape-font-specification:'Segoe UI, Normal';text-align:start;letter-spacing:-0.44999993px;writing-mode:lr-tb;text-anchor:start;fill:#0e7384;fill-opacity:1"
           id="path4203" />
        <path
           d="m 398.0247,429.44189 q -2.12403,1.17188 -5.60303,1.17188 -9.85108,0 -9.85108,-10.98633 l 0,-22.19238 -6.44531,0 0,-5.12695 6.44531,0 0,-9.15528 6.00586,-1.94092 0,11.0962 9.44825,0 0,5.12695 -9.44825,0 0,21.13037 q 0,3.77197 1.28174,5.3833 1.28174,1.61133 4.24805,1.61133 2.27051,0 3.91846,-1.24512 l 0,5.12695 z"
           style="font-style:normal;font-variant:normal;font-weight:normal;font-stretch:normal;font-size:75px;line-height:125%;font-family:'Segoe UI';-inkscape-font-specification:'Segoe UI, Normal';text-align:start;letter-spacing:-0.44999993px;writing-mode:lr-tb;text-anchor:start;fill:#0e7384;fill-opacity:1"
           id="path4205" />
      </g>
      <g
         style="font-style:normal;font-weight:normal;font-size:75px;line-height:125%;font-family:sans-serif;letter-spacing:-1.85000002px;word-spacing:0px;fill:#0e7384;fill-opacity:1;stroke:none;stroke-width:1px;stroke-linecap:butt;stroke-linejoin:miter;stroke-opacity:1"
         id="text4207">
        <path
           d="m 243.46309,382.85986 -15.16113,0 0,46.94825 -6.15235,0 0,-46.94825 -15.12451,0 0,-5.5664 36.43799,0 0,5.5664 z"
           style="font-style:normal;font-variant:normal;font-weight:normal;font-stretch:normal;font-size:75px;line-height:125%;font-family:'Segoe UI';-inkscape-font-specification:'Segoe UI, Normal';text-align:start;letter-spacing:-1.85000002px;writing-mode:lr-tb;text-anchor:start;fill:#0e7384;fill-opacity:1"
           id="path4208" />
      </g>
      <g
         style="font-style:normal;font-weight:normal;font-size:75px;line-height:125%;font-family:sans-serif;letter-spacing:-1.85000002px;word-spacing:0px;fill:#0e7384;fill-opacity:1;stroke:none;stroke-width:1px;stroke-linecap:butt;stroke-linejoin:miter;stroke-opacity:1"
         id="text4215">
        <path
           d="m 270.98837,429.55209 -6.00586,0 0,-5.85937 -0.14648,0 q -3.91846,6.73828 -11.53565,6.73828 -5.60302,0 -8.78906,-2.96631 -3.14941,-2.96631 -3.14941,-7.87353 0,-10.51026 12.37793,-12.23145 l 11.24267,-1.57471 q 0,-9.5581 -7.72705,-9.5581 -6.7749,0 -12.23144,4.61426 l 0,-6.15235 q 5.52978,-3.51562 12.74414,-3.51562 13.22021,0 13.22021,13.98926 l 0,24.38964 z m -6.00586,-18.96972 -9.04541,1.24511 q -4.1748,0.58594 -6.29882,2.08741 -2.12403,1.46484 -2.12403,5.23681 0,2.74658 1.94092,4.5044 1.97754,1.72119 5.23682,1.72119 4.46777,0 7.36084,-3.11279 2.92968,-3.14942 2.92968,-7.94678 l 0,-3.73535 z"
           style="font-style:normal;font-variant:normal;font-weight:normal;font-stretch:normal;font-size:75px;line-height:125%;font-family:'Segoe UI';-inkscape-font-specification:'Segoe UI, Normal';text-align:start;letter-spacing:-1.85000002px;writing-mode:lr-tb;text-anchor:start;fill:#0e7384;fill-opacity:1"
           id="path4211" />
      </g>
    </g>
    <g
       id="g22"
       transform="translate(-66.499991,0)">
      <g
         id="g24">
        <use
           xlink:href="#a29qJxp4Q5"
           id="use26"
           style="opacity:1;fill:#ffa64e;fill-opacity:1"
           x="0"
           y="0"
           width="100%"
           height="100%" />
        <g
           id="g28">
          <use
             xlink:href="#a29qJxp4Q5"
             id="use30"
             style="opacity:1;fill-opacity:0;stroke:#616161;stroke-width:0.1;stroke-opacity:1"
             x="0"
             y="0"
             width="100%"
             height="100%" />
        </g>
      </g>
      <g
         id="g32">
        <use
           xlink:href="#eKU1wMtMo"
           id="use34"
           style="opacity:1;fill:#3a9db2;fill-opacity:1"
           x="0"
           y="0"
           width="100%"
           height="100%" />
        <g
           id="g36">
          <use
             xlink:href="#eKU1wMtMo"
             id="use38"
             style="opacity:1;fill-opacity:0;stroke:#616161;stroke-width:0.1;stroke-opacity:1"
             x="0"
             y="0"
             width="100%"
             height="100%" />
        </g>
      </g>
    </g>
  </g>
</svg>
